# xmcd
#
# Track frame offsets:
#	150
#	15202
#	33165
#	51385
#	67810
#	84487
#	101130
#	124212
#	141120
#	160085
#	176387
#
# Disc length: 2613 seconds
#
# Revision: 0
# Processed by: cddbd v1.5.2PL0 Copyright (c) Steve Scherf et al.
# Submitted via: EZCDAudioConverter 3.1.0.1
#
DISCID=830a330b
DTITLE=Alejandra Guzmán - Libre
DYEAR=1993
DGENRE=Latin
TTITLE0=Mala Hierba
TTITLE1=Dime Adiós
TTITLE2=Mírala, Míralo
TTITLE3=Soy
TTITLE4=Calles De Fuego
TTITLE5=Ruge Al Corazón
TTITLE6=Angeles Caídos
TTITLE7=Hey Tú
TTITLE8=Libre
TTITLE9=Cuenta Conmigo
TTITLE10=Te Esperaba
EXTD=
EXTT0=
EXTT1=
EXTT2=
EXTT3=
EXTT4=
EXTT5=
EXTT6=
EXTT7=
EXTT8=
EXTT9=
EXTT10=
PLAYORDER=
